<?xml version="1.0" standalone="no"?>
<!DOCTYPE svg PUBLIC "-//W3C//DTD SVG 20010904//EN"
 "http://www.w3.org/TR/2001/REC-SVG-20010904/DTD/svg10.dtd">
<svg version="1.0" xmlns="http://www.w3.org/2000/svg"
 width="250.000000pt" height="250.000000pt" viewBox="0 0 250.000000 250.000000"
 preserveAspectRatio="xMidYMid meet">
<metadata>
Created by potrace 1.14, written by Peter Selinger 2001-2017
</metadata>
<g transform="translate(0.000000,250.000000) scale(0.100000,-0.100000)"
fill="#000000" stroke="none">
<path d="M1177 2404 c-106 -28 -174 -123 -194 -267 -9 -68 53 -194 143 -291
66 -71 80 -110 50 -135 -11 -9 -19 -5 -38 19 -22 28 -29 31 -61 25 -39 -8
-141 -99 -153 -138 -4 -12 -15 -33 -25 -46 -11 -13 -19 -35 -19 -48 0 -13 -9
-45 -19 -71 -11 -26 -22 -77 -25 -113 -3 -37 -14 -94 -26 -128 -11 -33 -20
-68 -20 -77 0 -28 -69 -159 -104 -200 l-33 -38 -200 -1 -199 0 -36 -30 c-46
-39 -64 -95 -48 -154 8 -32 30 -61 89 -120 45 -45 90 -81 107 -85 16 -4 36
-14 45 -22 10 -9 40 -21 69 -29 28 -7 62 -21 76 -29 16 -11 78 -22 187 -33
136 -13 184 -14 297 -4 170 14 251 14 420 -1 114 -10 160 -9 296 5 134 13 169
20 209 42 26 14 58 25 70 25 12 0 33 9 47 19 13 11 37 23 53 27 15 4 63 41
105 84 60 59 81 87 90 120 16 60 -1 116 -48 155 l-36 30 -196 1 c-107 0 -201
4 -208 8 -18 11 -92 113 -92 127 0 6 -8 28 -19 48 -25 49 -51 149 -63 246 -6
44 -19 101 -29 127 -10 26 -19 58 -19 71 0 13 -8 35 -19 48 -10 13 -21 33 -25
45 -3 11 -31 46 -60 76 -40 40 -65 57 -92 62 -34 7 -40 5 -62 -24 -19 -24 -27
-28 -38 -19 -30 25 -16 64 50 135 90 97 152 223 143 291 -20 145 -91 240 -202
268 -64 17 -73 17 -138 -1z m153 -134 c84 -67 103 -149 53 -224 -60 -89 -117
-156 -133 -156 -16 0 -73 67 -133 156 -36 54 -37 116 -2 165 70 95 144 115
215 59z m-190 -636 c0 -9 -9 -27 -20 -41 -11 -14 -20 -32 -20 -40 0 -8 -7 -27
-15 -41 -21 -38 -55 -139 -66 -197 -5 -27 -16 -80 -24 -116 -19 -83 -18 -165
0 -249 8 -36 14 -82 15 -102 0 -36 8 -60 35 -107 15 -26 10 -51 -10 -51 -7 0
-29 14 -50 30 -21 16 -43 30 -50 30 -6 0 -20 9 -29 19 -10 11 -30 22 -44 26
-60 15 -94 84 -57 115 23 19 62 92 69 131 4 21 13 50 21 67 9 16 19 60 24 98
5 38 14 81 20 97 6 15 15 53 20 85 12 77 63 182 109 226 38 38 72 47 72 20z
m291 -18 c19 -19 43 -52 54 -73 10 -21 26 -54 37 -74 10 -20 18 -50 18 -67 0
-16 9 -58 19 -93 10 -35 21 -88 25 -117 3 -29 12 -67 20 -84 9 -16 18 -46 22
-67 7 -39 46 -112 69 -131 37 -31 3 -100 -57 -115 -14 -4 -34 -15 -44 -26 -9
-10 -23 -19 -29 -19 -7 0 -29 -13 -50 -30 -21 -16 -43 -30 -50 -30 -20 0 -25
25 -10 51 27 47 35 71 35 107 0 20 7 64 15 97 19 77 19 170 0 254 -8 36 -18
89 -24 116 -11 61 -37 137 -62 187 -11 20 -19 43 -19 51 0 8 -9 26 -20 40 -47
59 -6 78 51 23z m-151 -57 c8 -24 21 -54 28 -66 6 -12 12 -28 12 -35 0 -7 7
-26 16 -43 9 -16 22 -55 29 -85 8 -30 21 -80 29 -110 21 -72 21 -238 1 -310
-9 -30 -21 -75 -27 -99 -12 -50 -60 -125 -94 -148 -22 -14 -26 -14 -48 0 -34
23 -82 98 -94 148 -6 24 -18 69 -27 99 -24 81 -16 285 13 358 12 29 22 64 22
77 0 14 9 42 20 62 11 21 20 43 20 50 0 7 9 32 19 55 10 24 24 56 30 71 15 38
33 30 51 -24z m-778 -775 c9 -3 19 -17 23 -32 4 -15 11 -33 17 -39 16 -20 72
-15 101 7 29 23 60 26 76 6 7 -8 27 -17 45 -20 19 -4 40 -13 47 -22 7 -8 27
-21 45 -29 19 -8 39 -19 46 -25 28 -23 95 -63 120 -72 20 -7 28 -17 28 -34 0
-28 11 -27 -170 -24 -122 2 -157 6 -219 26 -40 13 -86 24 -101 24 -15 0 -33 7
-40 14 -6 8 -28 20 -48 27 -20 7 -50 22 -65 35 -16 13 -32 24 -36 24 -4 0 -21
11 -37 25 -16 14 -32 25 -35 25 -13 0 -19 32 -9 49 22 41 126 58 212 35z
m1679 -10 c15 -7 29 -20 32 -29 7 -16 -1 -45 -12 -45 -3 0 -19 -11 -35 -25
-16 -14 -33 -25 -37 -25 -4 0 -20 -11 -36 -24 -15 -13 -45 -28 -65 -35 -20 -7
-42 -19 -48 -27 -7 -7 -25 -14 -40 -14 -15 0 -61 -11 -101 -24 -62 -20 -97
-24 -219 -26 -181 -3 -170 -4 -170 23 0 18 10 28 38 41 51 23 93 48 127 74 15
12 33 22 40 22 7 0 18 7 25 15 7 8 30 20 51 27 22 6 44 17 50 25 16 19 47 16
76 -7 29 -22 85 -27 101 -7 6 6 14 25 17 40 7 26 15 31 75 41 36 5 101 -4 131
-20z"/>
</g>
</svg>
